<svg width="45" height="35" viewBox="0 0 45 35" fill="none" xmlns="http://www.w3.org/2000/svg">
<path d="M0 5.78378C0 4.24983 0.592632 2.7787 1.64752 1.69403C2.70242 0.609361 4.13316 0 5.625 0H39.375C40.8668 0 42.2976 0.609361 43.3525 1.69403C44.4074 2.7787 45 4.24983 45 5.78378V8.67567H0V5.78378ZM0 14.4595V28.9189C0 30.4529 0.592632 31.924 1.64752 33.0087C2.70242 34.0933 4.13316 34.7027 5.625 34.7027H39.375C40.8668 34.7027 42.2976 34.0933 43.3525 33.0087C44.4074 31.924 45 30.4529 45 28.9189V14.4595H0ZM8.4375 20.2432H11.25C11.9959 20.2432 12.7113 20.5479 13.2387 21.0903C13.7662 21.6326 14.0625 22.3682 14.0625 23.1351V26.027C14.0625 26.794 13.7662 27.5296 13.2387 28.0719C12.7113 28.6142 11.9959 28.9189 11.25 28.9189H8.4375C7.69158 28.9189 6.97621 28.6142 6.44876 28.0719C5.92132 27.5296 5.625 26.794 5.625 26.027V23.1351C5.625 22.3682 5.92132 21.6326 6.44876 21.0903C6.97621 20.5479 7.69158 20.2432 8.4375 20.2432Z" fill="#1C1E26"/>
</svg>
