<svg width="32" height="35" viewBox="0 0 32 35" fill="none" xmlns="http://www.w3.org/2000/svg">
<path d="M28.3765 8.05269C28.6588 5.72993 28.1576 4.07948 26.7247 2.57435C25.0071 0.772087 21.9107 0 17.9437 0H6.43334C6.0415 0.000156403 5.66256 0.129073 5.36457 0.363599C5.06658 0.598125 4.86906 0.922894 4.80748 1.27958L0.0122779 29.2981C-0.010186 29.4282 -0.00175399 29.5613 0.0369928 29.6881C0.0757395 29.815 0.143878 29.9325 0.236707 30.0327C0.329536 30.1329 0.444846 30.2134 0.574679 30.2685C0.704512 30.3237 0.845779 30.3522 0.988731 30.3521H7.47332L6.99803 33.1282C6.96472 33.3225 6.97749 33.5212 7.03548 33.7106C7.09346 33.9 7.19527 34.0756 7.33391 34.2252C7.47255 34.3748 7.64472 34.495 7.83857 34.5774C8.03242 34.6599 8.24335 34.7026 8.45683 34.7027H14.4473C15.4567 34.7027 16.3132 34.0304 16.4755 33.1173L16.5343 32.8354L17.6637 26.2358L17.7343 25.8801L17.7367 25.8649C17.767 25.685 17.8663 25.5212 18.0166 25.403C18.1668 25.2848 18.358 25.2202 18.5555 25.2208H19.4496C22.4283 25.2208 25.1553 24.6656 27.32 23.2472C28.2118 22.6616 28.9953 21.9394 29.6564 21.0676C30.7544 19.6586 31.4649 18.025 31.727 16.3071C32.2964 13.6048 32.0329 11.1974 30.3858 9.46674C29.8781 8.94452 29.2724 8.51104 28.5976 8.18716L28.3765 8.05486V8.05269ZM10.6897 19.1287C10.9229 19.0164 11.182 18.9576 11.445 18.9573H14.8238C21.4589 18.9573 26.6518 16.4762 28.1694 9.29324L28.1765 9.25854C28.687 9.52746 29.1176 9.84411 29.4659 10.2085C30.7505 11.5596 31.0635 13.5375 30.5247 16.0859C29.8847 19.1157 28.4871 21.0892 26.6118 22.3189C24.7248 23.5552 22.2778 24.0865 19.4519 24.0865H18.5578C18.0693 24.0859 17.5965 24.2459 17.2243 24.5376C16.8522 24.8294 16.6051 25.2338 16.5273 25.6784L16.4567 26.0341L15.3273 32.6337L15.2708 32.9156L15.2685 32.9243C15.2371 33.1036 15.1375 33.2667 14.9874 33.3844C14.8373 33.502 14.6467 33.5665 14.4497 33.5663H8.45918C8.42297 33.5664 8.38717 33.5592 8.35426 33.5453C8.32135 33.5314 8.29213 33.511 8.26862 33.4856C8.24511 33.4602 8.22787 33.4304 8.21812 33.3983C8.20836 33.3662 8.20632 33.3324 8.21213 33.2995L8.70153 30.4367L10.6897 19.1287Z" fill="#222222"/>
</svg>
